# xmcd CD database file
#
# Track frame offsets:
#	150
#	10124
#	20399
#	33997
#	49630
#	67612
#	85249
#	94869
#
# Disc length: 1392 seconds
#
# Revision: 0
# Processed by: cddbd v1.5.2PL0 Copyright (c) Steve Scherf et al.
# Submitted via: CDex 1.70beta2
#
DISCID=4f056e08
DTITLE=Divers - Jazzmag n°634 - 02-2012 (1959 Le jazz fait son cinéma)
DYEAR=2012
DGENRE=Jazz
TTITLE0=Alain Goraguer - J'irai cracher sur vos tombes - Générique
TTITLE1=André Hodeir - Les tripes au soleil - Le désert
TTITLE2=Barney Wilen - Un témoin dans la ville - Témoin dans la ville
TTITLE3=John Lewis - Odds against tomorrow - Main theme
TTITLE4=Duke Ellington - Anatomy of a murder - Main title
TTITLE5=Art Blakey - Les liaisons dangereuses - No hay problema
TTITLE6=Martial Solal and André Hodeir - Match contre la mort - Montlhéry
TTITLE7=Martial Solal - A bout de souffle - La mort
EXTD=YEAR: 2012
EXTT0=
EXTT1=
EXTT2=
EXTT3=
EXTT4=
EXTT5=
EXTT6=
EXTT7=
PLAYORDER=
